<?xml version="1.0" encoding="UTF-8"?><svg version="1.1" viewBox="0 0 24 24" xmlns="http://www.w3.org/2000/svg" xmlns:xlink="http://www.w3.org/1999/xlink"><!--Generated by IJSVG (https://github.com/iconjar/IJSVG)--><g fill="#000"><path d="M21.5,19h-19c-1.379,0 -2.5,-1.122 -2.5,-2.5v-7c0,-1.378 1.121,-2.5 2.5,-2.5h2c0.276,0 0.5,0.224 0.5,0.5c0,0.276 -0.224,0.5 -0.5,0.5h-2c-0.827,0 -1.5,0.673 -1.5,1.5v7c0,0.827 0.673,1.5 1.5,1.5h19c0.827,0 1.5,-0.673 1.5,-1.5v-7c0,-0.827 -0.673,-1.5 -1.5,-1.5h-2c-0.276,0 -0.5,-0.224 -0.5,-0.5c0,-0.276 0.224,-0.5 0.5,-0.5h2c1.379,0 2.5,1.122 2.5,2.5v7c0,1.378 -1.121,2.5 -2.5,2.5Z"></path><path d="M19.5,11h-15c-0.276,0 -0.5,-0.224 -0.5,-0.5v-6c0,-0.133 0.053,-0.26 0.146,-0.354l4,-4c0.094,-0.093 0.221,-0.146 0.354,-0.146h11c0.276,0 0.5,0.224 0.5,0.5v10c0,0.276 -0.224,0.5 -0.5,0.5Zm-14.5,-1h14v-9h-10.293l-3.707,3.707v5.293Z"></path><path d="M19.5,24h-15c-0.276,0 -0.5,-0.224 -0.5,-0.5v-5c0,-0.276 0.224,-0.5 0.5,-0.5h15c0.276,0 0.5,0.224 0.5,0.5v5c0,0.276 -0.224,0.5 -0.5,0.5Zm-14.5,-1h14v-4h-14v4Z"></path><path d="M8.5,5h-4c-0.276,0 -0.5,-0.224 -0.5,-0.5c0,-0.276 0.224,-0.5 0.5,-0.5h3.5v-3.5c0,-0.276 0.224,-0.5 0.5,-0.5c0.276,0 0.5,0.224 0.5,0.5v4c0,0.276 -0.224,0.5 -0.5,0.5Z"></path><path d="M21.8536,9.14645c0.195262,0.195262 0.195262,0.511845 0,0.707107c-0.195262,0.195262 -0.511845,0.195262 -0.707107,0c-0.195262,-0.195262 -0.195262,-0.511845 0,-0.707107c0.195262,-0.195262 0.511845,-0.195262 0.707107,0"></path></g></svg>